<?xml version="1.0" encoding="utf-8"?>
<!-- Generator: Adobe Illustrator 16.0.4, SVG Export Plug-In . SVG Version: 6.00 Build 0)  -->
<!DOCTYPE svg PUBLIC "-//W3C//DTD SVG 1.1//EN" "http://www.w3.org/Graphics/SVG/1.1/DTD/svg11.dtd">
<svg version="1.1" xmlns="http://www.w3.org/2000/svg" xmlns:xlink="http://www.w3.org/1999/xlink" x="0px" y="0px"
	 width="113.114px" height="122.463px" viewBox="0 0 113.114 122.463" enable-background="new 0 0 113.114 122.463"
	 xml:space="preserve">
<g id="misc">
</g>
<g id="export::shelves">
	<polygon fill="none" stroke="#000000" stroke-width="1.5" stroke-linecap="round" stroke-linejoin="round" points="107.505,70.271 
		107.505,84.817 68.464,84.817 53.09,69.554 59.25,63.206 59.25,59.688 59.677,59.688 65.995,53.473 83.193,70.271 	"/>
	<g>
		<path d="M111.615,1.5v119.463H1.5V1.5H111.615 M113.115,0H0v122.463h113.115V0L113.115,0z"/>
	</g>
	<polygon fill="none" stroke="#000000" stroke-width="1.5" stroke-linecap="round" stroke-linejoin="round" points="5.609,79.938 
		35.203,79.938 53.641,60.932 53.641,58.057 35.154,39.796 5.609,39.796 	"/>
	<polygon fill="none" stroke="#000000" stroke-width="1.5" stroke-linecap="round" stroke-linejoin="round" points="5.609,34.187 
		5.609,5.608 75.039,5.608 75.039,32.438 62.091,45.86 62.091,49.445 57.489,53.974 37.458,34.187 	"/>
	<polygon fill="none" stroke="#000000" stroke-width="1.5" stroke-linecap="round" stroke-linejoin="round" points="67.999,47.815 
		80.647,34.702 80.647,5.608 107.505,5.608 107.505,64.662 85.478,64.662 68.23,47.815 	"/>
	<polygon fill="none" stroke="#000000" stroke-width="1.5" stroke-linecap="round" stroke-linejoin="round" points="5.609,85.547 
		37.576,85.547 48.069,74.73 50.344,74.73 66.152,90.426 107.505,90.426 107.505,116.854 5.609,116.854 	"/>
</g>
<g id="export::control_points">
</g>
<g id="Capa_1">
	<g>
		<path d="M47.946,109.905h3.01V98.038c0-0.198-0.161-0.359-0.36-0.359h-6.849c-0.349-0.351-0.83-0.569-1.361-0.569
			c-1.057,0-1.918,0.86-1.918,1.918c0,0.448,0.161,0.855,0.419,1.182v10.056c0,0.198,0.161,0.359,0.36,0.359h5.779L47.946,109.905z
			 M49.147,98.108c0.776,0,1.409,0.633,1.409,1.409c0,0.777-0.632,1.408-1.409,1.408c-0.777,0-1.409-0.631-1.409-1.408
			C47.739,98.741,48.371,98.108,49.147,98.108z M42.376,97.631c0.766,0,1.388,0.621,1.388,1.388c0,0.766-0.622,1.387-1.388,1.387
			s-1.387-0.621-1.387-1.387C40.99,98.252,41.61,97.631,42.376,97.631z M41.666,104.871c0-2.363,1.922-4.286,4.286-4.286
			c2.362,0,4.285,1.923,4.285,4.286c0,2.362-1.923,4.284-4.285,4.284C43.588,109.155,41.666,107.233,41.666,104.871z"/>
		<path d="M45.952,100.945c-2.165,0-3.926,1.76-3.926,3.926c0,2.164,1.761,3.925,3.926,3.925c2.165,0,3.926-1.761,3.926-3.925
			C49.877,102.705,48.116,100.945,45.952,100.945z M46.04,105.665c-0.456,0-0.825-0.369-0.825-0.826
			c0-0.455,0.369-0.825,0.825-0.825c0.457,0,0.826,0.37,0.826,0.825C46.866,105.296,46.497,105.665,46.04,105.665z"/>
		<circle cx="49.147" cy="99.518" r="1.049"/>
		<path d="M56.709,111.703H46.641c-0.198,0-0.379,0.159-0.404,0.357l-0.271,2.163c-0.024,0.197,0.117,0.356,0.315,0.356h10.788
			c0.198,0,0.339-0.159,0.315-0.356l-0.271-2.164C57.09,111.862,56.908,111.703,56.709,111.703z M48.079,113.861H47v-0.36h1.079
			V113.861z M51.843,114.333c-0.632,0-1.146-0.513-1.146-1.146c0-0.634,0.513-1.146,1.146-1.146c0.367,0,0.69,0.176,0.9,0.444
			l-0.375,0.133c-0.188,0.066-0.286,0.272-0.218,0.459c0.052,0.147,0.19,0.239,0.338,0.239c0.04,0,0.081-0.007,0.12-0.021
			l0.377-0.133c0,0.008,0.002,0.016,0.002,0.023C52.989,113.82,52.476,114.333,51.843,114.333z"/>
		<path d="M57.159,100.945c-2.165,0-3.926,1.76-3.926,3.926c0,2.164,1.761,3.925,3.926,3.925c2.165,0,3.926-1.761,3.926-3.925
			C61.085,102.705,59.324,100.945,57.159,100.945z M57.188,105.665c-0.456,0-0.826-0.369-0.826-0.826
			c0-0.455,0.37-0.825,0.826-0.825c0.456,0,0.825,0.37,0.825,0.825C58.013,105.296,57.644,105.665,57.188,105.665z"/>
		<path d="M53.963,100.566c0.579,0,1.049-0.471,1.049-1.049c0-0.579-0.47-1.049-1.049-1.049c-0.578,0-1.048,0.471-1.048,1.049
			S53.385,100.566,53.963,100.566z"/>
		<path d="M60.725,97.109c-0.532,0-1.013,0.219-1.361,0.569h-6.969c-0.199,0-0.36,0.161-0.36,0.359v11.867h3.392l0.92,0.719h5.397
			c0.199,0,0.36-0.161,0.36-0.359v-9.91c0.332-0.345,0.54-0.812,0.54-1.327C62.643,97.97,61.783,97.109,60.725,97.109z
			 M53.963,98.108c0.776,0,1.409,0.633,1.409,1.409c0,0.777-0.632,1.408-1.409,1.408s-1.408-0.631-1.408-1.408
			C52.555,98.741,53.187,98.108,53.963,98.108z M57.159,109.155c-2.363,0-4.285-1.922-4.285-4.284c0-2.363,1.922-4.286,4.285-4.286
			c2.362,0,4.285,1.923,4.285,4.286C61.444,107.233,59.521,109.155,57.159,109.155z M60.734,100.405
			c-0.766,0-1.388-0.621-1.388-1.387c0-0.767,0.622-1.388,1.388-1.388c0.766,0,1.387,0.621,1.387,1.388
			C62.121,99.784,61.5,100.405,60.734,100.405z"/>
		<polygon points="46.69,111.344 56.682,111.344 55.303,110.265 48.07,110.265 		"/>
		<circle cx="42.444" cy="99.029" r="0.639"/>
		<circle cx="60.784" cy="99.029" r="0.639"/>
	</g>
	<path d="M26.083,14.384H15.615c-0.66,0-1.191,0.534-1.191,1.193v15.18c0,0.658,0.531,1.193,1.191,1.193h10.468
		c0.657,0,1.191-0.535,1.191-1.193v-15.18C27.275,14.918,26.74,14.384,26.083,14.384z M20.85,31.503
		c-0.392,0-0.708-0.316-0.708-0.708s0.316-0.708,0.708-0.708c0.391,0,0.708,0.316,0.708,0.708S21.24,31.503,20.85,31.503z
		 M26.069,29.466H15.63V15.817h10.439V29.466z"/>
</g>
<g id="Layer_1">
	<g>
		<path fill="#231F20" d="M93.701,56.095h-2.5c-0.414,0-0.75,0.336-0.75,0.749v0.384c0,0.414,0.335,0.75,0.75,0.75h2.5
			c0.414,0,0.75-0.336,0.75-0.75v-0.384C94.451,56.431,94.115,56.095,93.701,56.095z"/>
		<path fill="#231F20" d="M92.609,45.771h2.362h0.003h2.362c0.77,0,1.391-0.623,1.391-1.392v-1.809c0-0.769-0.622-1.391-1.391-1.391
			h-0.611c-0.128-0.235-0.377-0.396-0.662-0.396h-0.445c-0.048-0.166-0.202-0.289-0.385-0.289h-0.173v-2.829
			c0.197-0.063,0.339-0.247,0.339-0.464c0-0.268-0.217-0.487-0.487-0.487c-0.269,0-0.487,0.22-0.487,0.487
			c0,0.217,0.143,0.4,0.339,0.465v2.83h-0.063c-0.183,0-0.337,0.122-0.385,0.288h-0.259c-0.286,0-0.535,0.161-0.663,0.396h-0.785
			c-0.769,0-1.391,0.623-1.391,1.392v1.808C91.218,45.148,91.841,45.771,92.609,45.771z M96.366,42.907
			c0.353,0,0.639,0.285,0.639,0.639c0,0.353-0.286,0.639-0.639,0.639s-0.639-0.286-0.639-0.639
			C95.727,43.192,96.013,42.907,96.366,42.907z M93.582,42.907c0.353,0,0.638,0.285,0.638,0.639c0,0.353-0.285,0.639-0.638,0.639
			c-0.353,0-0.638-0.286-0.638-0.639C92.943,43.192,93.229,42.907,93.582,42.907z"/>
		<path fill="#231F20" d="M98.08,45.964h-3.11h-0.003h-3.11c-0.769,0-1.392,0.623-1.392,1.393v4.852
			c0,0.769,0.623,1.393,1.392,1.393h3.111h0.003h3.111c0.768,0,1.392-0.624,1.392-1.393v-4.852
			C99.471,46.587,98.848,45.964,98.08,45.964z M92.361,47.117h5.213c0.327,0,0.593,0.266,0.593,0.593v1.478h-1.014l-0.269-0.534
			c-0.013-0.024-0.041-0.042-0.069-0.041c-0.029,0-0.055,0.018-0.067,0.045l-0.247,0.53h-1.656l-0.112-0.222
			c-0.014-0.025-0.041-0.041-0.07-0.041c-0.03,0.002-0.056,0.02-0.066,0.047l-0.246,0.593l-0.226-0.986
			c-0.008-0.034-0.039-0.059-0.073-0.059h-0.001c-0.036,0-0.066,0.024-0.073,0.06l-0.346,1.619l-0.422-2.513
			c-0.005-0.034-0.034-0.06-0.067-0.062c-0.035-0.003-0.067,0.017-0.078,0.05l-0.539,1.515h-0.758V47.71
			C91.768,47.383,92.034,47.117,92.361,47.117z M92.223,52.64c-0.251,0-0.455-0.203-0.455-0.455s0.204-0.455,0.455-0.455
			s0.455,0.205,0.455,0.455C92.678,52.437,92.474,52.64,92.223,52.64z M93.325,52.64c-0.251,0-0.456-0.203-0.456-0.455
			s0.204-0.455,0.456-0.455s0.455,0.205,0.455,0.455C93.78,52.437,93.576,52.64,93.325,52.64z M97.575,51.183h-5.213
			c-0.328,0-0.593-0.267-0.593-0.594v-1.25h0.812c0.032,0,0.061-0.021,0.071-0.051l0.459-1.291l0.439,2.615
			c0.006,0.037,0.036,0.062,0.073,0.064c0,0,0.001,0,0.001,0c0.035,0,0.066-0.025,0.074-0.061l0.358-1.673l0.203,0.886
			c0.007,0.031,0.034,0.055,0.067,0.059c0.032,0.002,0.063-0.017,0.075-0.047l0.274-0.66l0.059,0.117
			c0.013,0.025,0.039,0.041,0.067,0.041h1.751c0.029,0,0.056-0.017,0.068-0.043l0.201-0.434l0.219,0.436
			c0.013,0.025,0.04,0.041,0.068,0.041h1.06v1.25C98.167,50.916,97.903,51.183,97.575,51.183z"/>
		<path fill="#231F20" d="M89.071,46.019c-0.608,0-1.101,0.492-1.101,1.102v5.324c0,0.609,0.493,1.102,1.101,1.102
			s1.102-0.492,1.102-1.102V47.12C90.173,46.511,89.679,46.019,89.071,46.019z"/>
		<path fill="#231F20" d="M100.842,46.019c-0.609,0-1.102,0.492-1.102,1.102v5.324c0,0.609,0.493,1.102,1.102,1.102
			c0.608,0,1.101-0.492,1.101-1.102V47.12C101.943,46.511,101.45,46.019,100.842,46.019z"/>
		<path fill="#231F20" d="M92.425,58.226c-1.103,0-1.997,0.895-1.997,1.997c0,1.104,0.894,1.998,1.997,1.998
			s1.998-0.895,1.998-1.998C94.422,59.12,93.528,58.226,92.425,58.226z M92.425,60.88c-0.362,0-0.657-0.294-0.657-0.657
			c0-0.362,0.294-0.657,0.657-0.657c0.363,0,0.657,0.295,0.657,0.657C93.082,60.586,92.788,60.88,92.425,60.88z"/>
		<path fill="#231F20" d="M93.701,53.901h-2.5c-0.414,0-0.75,0.336-0.75,0.75v0.385c0,0.414,0.335,0.749,0.75,0.749h2.5
			c0.414,0,0.75-0.336,0.75-0.749v-0.385C94.451,54.237,94.115,53.901,93.701,53.901z"/>
		<path fill="#231F20" d="M98.708,56.095h-2.5c-0.415,0-0.749,0.336-0.749,0.749v0.384c0,0.414,0.335,0.75,0.749,0.75h2.5
			c0.413,0,0.749-0.336,0.749-0.75v-0.384C99.457,56.431,99.121,56.095,98.708,56.095z"/>
		<path fill="#231F20" d="M97.431,58.226c-1.103,0-1.997,0.895-1.997,1.997c0,1.104,0.895,1.998,1.997,1.998
			c1.104,0,1.998-0.895,1.998-1.998C99.428,59.12,98.534,58.226,97.431,58.226z M97.431,60.88c-0.362,0-0.656-0.294-0.656-0.657
			c0-0.362,0.293-0.657,0.656-0.657c0.363,0,0.657,0.295,0.657,0.657C98.088,60.586,97.794,60.88,97.431,60.88z"/>
		<path fill="#231F20" d="M98.708,53.901h-2.5c-0.415,0-0.749,0.336-0.749,0.75v0.385c0,0.414,0.335,0.749,0.749,0.749h2.5
			c0.413,0,0.749-0.336,0.749-0.749v-0.385C99.457,54.237,99.121,53.901,98.708,53.901z"/>
	</g>
	<g>
		<path fill="#231F20" d="M19.319,76.215v-1.864l-0.134-0.119c-0.161,0.103-0.35,0.166-0.553,0.178
			c-0.021,0.001-0.042,0.002-0.063,0.002c-0.215,0-0.417-0.061-0.59-0.164v1.879c-0.678,0.235-1.166,0.878-1.166,1.635
			c1.76,0,0.875,0,3.462,0C20.274,77.085,19.886,76.499,19.319,76.215z"/>
		<circle fill="#231F20" cx="19.291" cy="59.466" r="0.411"/>
		<path fill="#231F20" d="M19.452,73.22c-0.027-0.488-0.444-0.861-0.931-0.834c-0.178,0.01-0.34,0.07-0.474,0.17l1.286,1.152
			C19.418,73.564,19.46,73.396,19.452,73.22z"/>
		<path fill="#231F20" d="M17.687,73.315c0.026,0.487,0.443,0.861,0.931,0.834c0.147-0.007,0.283-0.052,0.402-0.122l-1.255-1.124
			C17.708,73.029,17.678,73.169,17.687,73.315z"/>
		<path fill="#231F20" d="M23.561,76.126v-1.881c-0.173,0.104-0.375,0.164-0.59,0.164c-0.021,0-0.043,0-0.063,0
			c-0.204-0.012-0.393-0.076-0.553-0.18l-0.134,0.121v1.863c-0.567,0.285-0.956,0.87-0.956,1.547c2.586,0,1.703,0,3.461,0
			C24.726,77.003,24.239,76.358,23.561,76.126z"/>
		<circle fill="#231F20" cx="22.248" cy="59.465" r="0.411"/>
		<path fill="#231F20" d="M22.087,73.218c-0.01,0.178,0.033,0.345,0.116,0.488l1.288-1.152c-0.133-0.098-0.296-0.16-0.474-0.17
			C22.531,72.356,22.114,72.729,22.087,73.218z"/>
		<path fill="#231F20" d="M23.853,73.314c0.008-0.147-0.021-0.286-0.078-0.413l-1.255,1.125c0.118,0.07,0.254,0.115,0.401,0.123
			C23.408,74.176,23.826,73.802,23.853,73.314z"/>
		<path fill="#231F20" d="M15.659,67.13c-0.026-0.484-0.44-0.855-0.923-0.828c-0.176,0.01-0.335,0.072-0.468,0.168l1.276,1.144
			C15.626,67.472,15.669,67.304,15.659,67.13z"/>
		<path fill="#231F20" d="M14.833,68.052c0.145-0.008,0.281-0.053,0.398-0.121l-1.244-1.115c-0.057,0.123-0.086,0.264-0.078,0.41
			C13.936,67.708,14.35,68.078,14.833,68.052z"/>
		<path fill="#231F20" d="M25.879,67.13c-0.01,0.174,0.034,0.342,0.116,0.483l1.277-1.144c-0.134-0.096-0.294-0.158-0.469-0.167
			C26.32,66.274,25.906,66.646,25.879,67.13z"/>
		<path fill="#231F20" d="M26.707,68.052c0.483,0.026,0.896-0.344,0.922-0.826c0.008-0.146-0.02-0.287-0.077-0.41l-1.245,1.115
			C26.426,67.999,26.561,68.044,26.707,68.052z"/>
		<path fill="#231F20" d="M26.817,66.034c0.165,0.01,0.32,0.054,0.463,0.127c-0.388-1.363-1.496-2.502-2.401-2.576l-2.367-0.006
			v-0.904h1.152c0,0,1.193-5.129,0-5.129c-0.256,0-0.69,0-1.212,0c-0.167-0.229-0.664-0.406-1.292-0.463
			c0.125-0.355,0.463-1.127,1.106-1.393c0.062,0.242,0.281,0.424,0.543,0.424c0.31,0,0.562-0.252,0.562-0.562
			c0-0.31-0.25-0.562-0.561-0.562c-0.229,0-0.424,0.138-0.512,0.333c-0.948,0.271-1.369,1.373-1.485,1.742
			c-0.015,0-0.029-0.001-0.044-0.001v0.001c-0.014,0-0.027,0-0.042,0c-0.116-0.369-0.539-1.471-1.485-1.74
			c-0.088-0.196-0.284-0.334-0.512-0.334c-0.312,0-0.562,0.252-0.562,0.562s0.251,0.562,0.562,0.562c0.261,0,0.479-0.18,0.542-0.424
			c0.642,0.267,0.981,1.037,1.107,1.393c-0.629,0.057-1.127,0.235-1.292,0.461c-0.522,0-0.956,0-1.212,0c-1.194,0,0,5.131,0,5.131
			h1.152v0.904l-2.367,0.004c-0.905,0.074-2.013,1.213-2.401,2.576c0.143-0.073,0.299-0.117,0.463-0.127
			c0.339-0.018,0.65,0.115,0.872,0.336c0.276-0.789,0.895-1.379,1.154-1.447l0.366,5.594h0.864v1.771
			c0.16-0.096,0.339-0.151,0.528-0.162c0.311-0.018,0.597,0.092,0.813,0.281v-1.891h1.451v-0.002h1.449v1.89
			c0.217-0.188,0.503-0.297,0.813-0.279c0.189,0.009,0.369,0.065,0.527,0.161v-1.771h0.865l0.365-5.592
			c0.259,0.068,0.878,0.658,1.155,1.449C26.167,66.149,26.478,66.017,26.817,66.034z M20.768,61.104h1.068v0.67H20.77v0.002h-1.069
			v-0.67h1.067V61.104z M23.156,59.466c0,0.5-0.407,0.906-0.908,0.906c-0.5,0-0.907-0.406-0.907-0.906
			c0-0.502,0.407-0.908,0.907-0.908C22.749,58.558,23.156,58.964,23.156,59.466z M18.383,59.466c0-0.501,0.407-0.907,0.907-0.907
			c0.501,0,0.907,0.407,0.907,0.907c0,0.502-0.407,0.908-0.907,0.908C18.79,60.374,18.383,59.968,18.383,59.466z M23.73,69.368
			h-5.563v-0.287h5.563V69.368z M23.73,68.571h-5.563v-0.285h5.563V68.571z M23.73,67.786h-5.563v-0.285h5.563V67.786z
			 M23.73,66.991h-5.563v-0.287h5.563V66.991z M23.73,66.195h-5.563v-0.286h5.563V66.195z M23.73,65.441h-5.563v-0.286h5.563V65.441
			z"/>
		<path fill="#231F20" d="M16.146,70.872c0-0.336-0.271-0.607-0.607-0.607h-0.084v-2.076L15.4,68.14
			c-0.161,0.104-0.348,0.168-0.553,0.179c-0.021,0.002-0.043,0.002-0.063,0.002c-0.25,0-0.481-0.081-0.67-0.218v2.162h-0.097
			c-0.336-0.002-0.608,0.27-0.608,0.605c0,0.021,0.004,0.042,0.006,0.062c-0.002,0.021-0.006,0.041-0.006,0.062v0.74
			c0,0.27,0.218,0.488,0.488,0.488c0.27,0.002,0.489-0.217,0.489-0.487v-0.259h0.796v0.26c0,0.27,0.218,0.488,0.488,0.488
			c0.271,0,0.489-0.218,0.489-0.488l0.001-0.74c0-0.041-0.006-0.078-0.015-0.115C16.146,70.88,16.146,70.876,16.146,70.872z"/>
		<path fill="#231F20" d="M28.13,70.995c0-0.021-0.004-0.041-0.007-0.062c0.003-0.021,0.007-0.041,0.007-0.062
			c0-0.336-0.272-0.607-0.608-0.607h-0.097v-2.162c-0.188,0.139-0.42,0.22-0.669,0.22c-0.021,0-0.042,0-0.063-0.002
			c-0.204-0.011-0.392-0.076-0.553-0.179l-0.054,0.047v2.078H26c-0.335,0-0.607,0.271-0.607,0.607c0,0.003,0,0.006,0,0.01
			c-0.008,0.038-0.015,0.076-0.015,0.116l0,0.739c0,0.271,0.219,0.49,0.489,0.49s0.489-0.22,0.489-0.49v-0.258l0.795-0.002v0.26
			c0,0.27,0.22,0.488,0.489,0.488s0.489-0.219,0.488-0.489L28.13,70.995z"/>
	</g>
</g>
</svg>
