<?xml version="1.0" encoding="utf-8"?>
<!-- Generator: Adobe Illustrator 16.0.4, SVG Export Plug-In . SVG Version: 6.00 Build 0)  -->
<!DOCTYPE svg PUBLIC "-//W3C//DTD SVG 1.1//EN" "http://www.w3.org/Graphics/SVG/1.1/DTD/svg11.dtd">
<svg version="1.1" id="Layer_1" xmlns="http://www.w3.org/2000/svg" xmlns:xlink="http://www.w3.org/1999/xlink" x="0px" y="0px"
	 width="1000px" height="1000px" viewBox="0 0 1000 1000" enable-background="new 0 0 1000 1000" xml:space="preserve">
<path fill="none" stroke="#000000" stroke-width="15" stroke-linecap="round" stroke-linejoin="round" stroke-miterlimit="10" d="
	M812.146,568.452c-52.453,1.613-75.052-19.368-75.052-19.368s25.041-21.028,75.859-20.174
	c71.82,1.211,104.502-31.494,104.502-31.494s-36.717-34.678-106.52-33.871c-57.942,0.672-72.765-19.906-72.765-19.906
	s11.267-17.453,58.642-16.405c73.03,1.612,132.834-23.802,132.834-23.802c-267.869-111.5-264.88,45.689-424.959,35.904
	C290.183,426.229,63.01,307.15,70.535,484.526c6.455,152.186,145.255,64.558,422.294,69.399
	c189.035,3.305,216.292,149.023,434.714,45.998C927.543,599.924,880.07,566.362,812.146,568.452z"/>
</svg>
