<?xml version="1.0" encoding="utf-8"?>
<!-- Generator: Adobe Illustrator 16.0.4, SVG Export Plug-In . SVG Version: 6.00 Build 0)  -->
<!DOCTYPE svg PUBLIC "-//W3C//DTD SVG 1.1//EN" "http://www.w3.org/Graphics/SVG/1.1/DTD/svg11.dtd">
<svg version="1.1" id="trace" xmlns="http://www.w3.org/2000/svg" xmlns:xlink="http://www.w3.org/1999/xlink" x="0px" y="0px"
	 width="300px" height="160px" viewBox="50 240 300 160" enable-background="new 50 240 300 160" xml:space="preserve">
<polyline fill="none" stroke="#3D384F" stroke-width="3" stroke-linecap="round" stroke-linejoin="round" points="88.647,299.886 
	88.723,299.903 88.946,299.954 89.312,300.036 89.812,300.142 90.444,300.276 91.201,300.434 92.076,300.605 93.063,300.795 
	94.159,300.998 95.357,301.212 96.65,301.431 98.032,301.656 99.499,301.881 101.042,302.104 102.655,302.322 104.334,302.529 
	106.069,302.724 107.855,302.9 109.686,303.06 111.554,303.191 113.451,303.296 115.373,303.368 117.31,303.403 119.255,303.403 
	121.202,303.355 123.146,303.263 125.075,303.117 126.987,302.923 128.872,302.667 128.872,302.667 130.304,302.485 
	131.711,302.373 133.093,302.322 134.448,302.336 135.777,302.406 137.076,302.521 138.344,302.685 139.581,302.892 140.781,303.13 
	141.948,303.403 143.077,303.708 144.167,304.035 145.213,304.379 146.217,304.741 147.175,305.112 148.084,305.491 
	148.941,305.871 149.746,306.246 150.495,306.612 151.187,306.97 151.815,307.31 152.381,307.628 152.88,307.919 153.31,308.18 
	153.667,308.4 153.949,308.583 154.153,308.718 154.279,308.804 154.321,308.833 154.321,308.833 154.268,308.844 154.11,308.875 
	153.855,308.926 153.506,308.992 153.067,309.075 152.542,309.171 151.938,309.278 151.258,309.397 150.508,309.525 
	149.689,309.663 148.812,309.806 147.875,309.954 146.885,310.102 145.848,310.254 144.769,310.404 143.649,310.555 142.496,310.7 
	141.314,310.839 140.108,310.974 138.884,311.102 137.644,311.217 136.393,311.322 135.14,311.419 133.886,311.499 132.638,311.562 
	131.4,311.613 130.18,311.646 128.979,311.66 127.805,311.653 127.805,311.653 126.176,311.66 124.563,311.715 122.973,311.816 
	121.402,311.962 119.856,312.15 118.338,312.375 116.847,312.631 115.39,312.92 113.966,313.233 112.579,313.569 111.231,313.927 
	109.928,314.302 108.671,314.686 107.464,315.078 106.309,315.476 105.21,315.877 104.17,316.271 103.193,316.659 102.283,317.038 
	101.443,317.4 100.677,317.74 99.987,318.058 99.378,318.35 98.854,318.605 98.416,318.826 98.07,319.003 97.818,319.135 
	97.666,319.219 97.614,319.247 97.614,319.247 97.656,319.271 97.784,319.347 97.996,319.464 98.293,319.62 98.673,319.814 
	99.135,320.04 99.68,320.294 100.308,320.569 101.018,320.865 101.808,321.174 102.68,321.496 103.632,321.827 104.663,322.158 
	105.774,322.485 106.963,322.81 108.229,323.121 109.573,323.419 110.991,323.694 112.482,323.948 114.048,324.171 115.684,324.361 
	117.39,324.511 119.163,324.617 121.004,324.677 122.907,324.679 124.874,324.626 126.898,324.509 128.982,324.326 131.118,324.069 
	131.118,324.069 132.88,323.845 134.572,323.65 136.194,323.482 137.752,323.346 139.242,323.235 140.668,323.147 142.028,323.085 
	143.326,323.048 144.56,323.023 145.731,323.02 146.842,323.032 147.89,323.063 148.877,323.104 149.803,323.154 150.668,323.216 
	151.473,323.286 152.218,323.363 152.903,323.447 153.527,323.529 154.093,323.61 154.599,323.694 155.044,323.774 155.431,323.849 
	155.757,323.92 156.023,323.981 156.231,324.032 156.38,324.072 156.47,324.096 156.498,324.105 156.498,324.105 156.442,324.141 
	156.276,324.237 156.006,324.398 155.636,324.612 155.168,324.882 154.608,325.193 153.962,325.549 153.229,325.941 
	152.419,326.362 151.531,326.811 150.574,327.283 149.55,327.771 148.463,328.271 147.316,328.781 146.115,329.291 144.866,329.797 
	143.572,330.298 142.238,330.783 140.867,331.251 139.469,331.692 138.044,332.112 136.599,332.489 135.139,332.831 
	133.671,333.127 132.197,333.374 130.728,333.564 129.267,333.696 127.819,333.763 126.393,333.758 126.393,333.758 
	124.148,333.723 121.787,333.731 119.321,333.782 116.762,333.873 114.122,334.001 111.416,334.16 108.653,334.352 105.852,334.57 
	103.022,334.813 100.182,335.082 97.342,335.371 94.52,335.679 91.729,336.005 88.986,336.345 86.307,336.693 83.708,337.051 
	81.203,337.413 78.809,337.775 76.541,338.133 74.415,338.481 72.448,338.814 70.654,339.13 69.048,339.415 67.649,339.678 
	66.47,339.9 65.525,340.081 64.83,340.216 64.403,340.3 64.256,340.33 64.256,340.33 70.759,343.111 77.359,345.534 84.019,347.604 
	90.695,349.309 97.352,350.644 103.953,351.612 110.467,352.217 116.869,352.474 123.144,352.39 129.272,351.987 135.246,351.295 
	141.06,350.337 146.704,349.141 152.177,347.732 157.479,346.14 162.604,344.394 167.559,342.52 172.341,340.551 176.956,338.508 
	181.405,336.415 185.692,334.295 189.825,332.178 193.807,330.075 197.646,328.014 201.348,326.017 204.918,324.092 
	208.367,322.269 211.702,320.574 214.932,319.021 214.932,319.021 219.299,317.29 223.878,315.99 228.649,315.105 233.598,314.58 
	238.703,314.377 243.942,314.47 249.295,314.822 254.729,315.405 260.221,316.18 265.735,317.109 271.242,318.15 276.703,319.268 
	282.082,320.413 287.344,321.536 292.445,322.584 297.354,323.509 302.024,324.253 306.422,324.763 310.507,324.988 314.24,324.877 
	317.581,324.392 320.49,323.487 322.926,322.141 324.848,320.317 326.221,318.005 327.005,315.2 327.174,311.888 326.701,308.078 
	325.576,303.771 325.576,303.771 324.275,300.168 322.87,297.12 321.354,294.571 319.717,292.471 317.951,290.78 316.047,289.456 
	314.007,288.447 311.812,287.736 309.465,287.265 306.952,287.015 304.268,286.948 301.402,287.035 298.344,287.249 
	295.082,287.566 291.601,287.971 287.887,288.449 283.922,288.997 279.691,289.602 275.182,290.264 270.379,290.972 
	265.273,291.729 259.862,292.525 254.143,293.34 248.12,294.161 241.799,294.976 235.195,295.75 228.325,296.463 221.211,297.083 
	213.877,297.586 213.877,297.586 208.907,297.818 204.135,297.897 199.552,297.836 195.145,297.621 190.899,297.29 186.805,296.849 
	182.841,296.324 178.996,295.741 175.251,295.104 171.589,294.443 167.992,293.781 164.44,293.119 160.916,292.488 157.398,291.901 
	153.867,291.371 150.301,290.912 146.678,290.546 142.973,290.281 139.164,290.133 135.224,290.118 131.124,290.25 126.837,290.546 
	122.331,291.027 117.574,291.714 112.532,292.629 107.168,293.804 101.443,295.277 95.321,297.092 88.76,299.299 "/>
<polyline fill="none" stroke="#3D384F" stroke-width="3" stroke-linecap="round" stroke-linejoin="round" points="88.127,298.853 
	88.2,298.866 88.418,298.903 88.773,298.963 89.261,299.041 89.875,299.133 90.61,299.241 91.463,299.356 92.424,299.482 
	93.489,299.612 94.654,299.742 95.912,299.873 97.257,300.001 98.685,300.12 100.188,300.234 101.76,300.332 103.397,300.418 
	105.093,300.486 106.84,300.53 108.631,300.555 110.462,300.553 112.325,300.52 114.214,300.455 116.123,300.358 118.043,300.222 
	119.97,300.045 121.896,299.828 123.812,299.563 125.714,299.25 127.592,298.889 127.592,298.889 129.021,298.626 130.428,298.438 
	131.811,298.316 133.168,298.262 134.498,298.264 135.802,298.321 137.075,298.43 138.317,298.584 139.526,298.778 140.701,299.008 
	141.839,299.272 142.937,299.562 143.994,299.875 145.007,300.208 145.975,300.553 146.894,300.905 147.761,301.266 
	148.575,301.623 149.333,301.976 150.033,302.318 150.671,302.646 151.243,302.953 151.749,303.236 152.185,303.492 
	152.547,303.708 152.834,303.887 153.041,304.021 153.168,304.105 153.211,304.132 153.211,304.132 153.157,304.146 
	152.997,304.179 152.737,304.233 152.381,304.304 151.936,304.396 151.402,304.503 150.788,304.622 150.097,304.759 
	149.335,304.904 148.505,305.059 147.613,305.223 146.663,305.395 145.661,305.573 144.61,305.754 143.519,305.938 142.386,306.125 
	141.222,306.308 140.029,306.493 138.812,306.672 137.578,306.847 136.33,307.015 135.073,307.173 133.814,307.325 132.557,307.465 
	131.306,307.59 130.066,307.703 128.847,307.796 127.647,307.875 126.477,307.933 126.477,307.933 124.854,308.029 123.25,308.18 
	121.669,308.376 120.111,308.619 118.579,308.903 117.076,309.224 115.604,309.576 114.163,309.958 112.759,310.369 
	111.392,310.797 110.065,311.243 108.783,311.704 107.547,312.174 106.359,312.646 105.226,313.123 104.147,313.596 
	103.127,314.059 102.17,314.512 101.277,314.948 100.454,315.363 99.702,315.754 99.025,316.116 98.43,316.444 97.916,316.733 
	97.487,316.98 97.148,317.18 96.902,317.33 96.753,317.422 96.702,317.453 96.702,317.453 96.744,317.476 96.867,317.539 
	97.072,317.643 97.36,317.78 97.729,317.945 98.179,318.138 98.708,318.354 99.318,318.585 100.008,318.83 100.778,319.086 
	101.627,319.349 102.555,319.611 103.562,319.872 104.646,320.124 105.808,320.366 107.047,320.596 108.363,320.801 
	109.754,320.984 111.221,321.139 112.76,321.263 114.372,321.349 116.057,321.393 117.811,321.393 119.633,321.342 121.523,321.238 
	123.48,321.077 125.498,320.852 127.578,320.561 129.718,320.203 129.718,320.203 131.483,319.895 133.182,319.625 134.813,319.391 
	136.381,319.19 137.883,319.022 139.32,318.886 140.695,318.777 142.006,318.693 143.254,318.636 144.44,318.599 145.565,318.583 
	146.627,318.583 147.628,318.601 148.567,318.632 149.446,318.676 150.264,318.733 151.021,318.795 151.717,318.865 
	152.353,318.937 152.927,319.014 153.44,319.091 153.895,319.166 154.288,319.236 154.62,319.303 154.892,319.36 155.104,319.408 
	155.255,319.448 155.345,319.471 155.375,319.479 155.375,319.479 155.317,319.515 155.148,319.616 154.873,319.779 
	154.494,320.002 154.017,320.278 153.446,320.601 152.786,320.967 152.04,321.373 151.214,321.814 150.312,322.282 149.336,322.776 
	148.293,323.288 147.188,323.818 146.023,324.356 144.804,324.901 143.536,325.447 142.224,325.985 140.872,326.515 
	139.486,327.031 138.071,327.523 136.633,327.991 135.176,328.426 133.705,328.828 132.228,329.186 130.749,329.494 129.274,329.75 
	127.812,329.951 126.363,330.086 124.938,330.152 124.938,330.152 122.703,330.228 120.355,330.361 117.906,330.549 
	115.372,330.788 112.763,331.07 110.094,331.393 107.376,331.754 104.625,332.147 101.852,332.566 99.072,333.013 96.298,333.476 
	93.544,333.952 90.823,334.442 88.151,334.941 85.542,335.436 83.01,335.93 80.569,336.42 78.235,336.893 76.023,337.352 
	73.949,337.788 72.027,338.198 70.273,338.58 68.703,338.927 67.332,339.231 66.037,339.298 65.1,339.496 64.411,339.642 
	63.986,339.73 63.842,339.761 63.842,339.761 70.347,342.528 76.76,344.66 83.22,346.387 89.7,347.72 96.177,348.668 
	102.625,349.256 109.023,349.491 115.35,349.403 121.586,349.013 127.715,348.342 133.723,347.417 139.594,346.265 145.319,344.912 
	150.891,343.383 156.3,341.708 161.542,339.907 166.616,338.014 171.519,336.045 176.251,334.027 180.813,331.988 185.21,329.944 
	189.444,327.916 193.521,325.928 197.444,323.997 201.223,322.141 204.863,320.38 208.372,318.725 211.758,317.192 215.031,315.794 
	215.031,315.794 219.454,314.233 224.086,313.079 228.911,312.289 233.914,311.821 239.08,311.631 244.391,311.69 249.825,311.96 
	255.361,312.403 260.974,312.991 266.635,313.684 272.312,314.443 277.974,315.237 283.582,316.029 289.096,316.778 294.473,317.44 
	299.667,317.98 304.632,318.354 309.318,318.521 313.675,318.438 317.654,318.066 321.205,317.365 324.279,316.301 326.834,314.836 
	328.829,312.942 330.223,310.599 330.99,307.775 331.102,304.472 330.543,300.672 329.305,296.377 329.305,296.377 327.906,292.775 
	326.416,289.716 324.828,287.143 323.126,285.011 321.303,283.271 319.349,281.895 317.25,280.844 314.994,280.094 312.572,279.617 
	309.969,279.392 307.176,279.396 304.176,279.61 300.961,280.015 297.519,280.586 293.838,281.308 289.906,282.164 285.717,283.131 
	281.26,284.188 276.528,285.315 271.516,286.485 266.221,287.673 260.641,288.855 254.774,290.008 248.627,291.089 242.202,292.08 
	235.511,292.94 228.562,293.636 221.372,294.135 213.955,294.399 213.955,294.399 208.918,294.395 204.074,294.223 199.411,293.914 
	194.92,293.494 190.591,292.98 186.408,292.391 182.359,291.742 178.43,291.056 174.604,290.345 170.862,289.632 167.19,288.931 
	163.568,288.26 159.978,287.637 156.399,287.076 152.812,286.598 149.195,286.216 145.529,285.949 141.792,285.812 137.959,285.823 
	134.005,286 129.906,286.357 125.638,286.913 121.167,287.694 116.467,288.714 111.502,289.996 106.238,291.565 100.636,293.448 
	94.652,295.671 88.24,298.269 "/>
<g>
	
		<line fill="none" stroke="#3D384F" stroke-width="3" stroke-linecap="round" stroke-linejoin="round" x1="88.24" y1="298.269" x2="88.76" y2="299.299"/>
	
		<line fill="none" stroke="#3D384F" stroke-width="3" stroke-linecap="round" stroke-linejoin="round" x1="116.467" y1="288.714" x2="117.574" y2="291.714"/>
	
		<line fill="none" stroke="#3D384F" stroke-width="3" stroke-linecap="round" stroke-linejoin="round" x1="137.959" y1="285.823" x2="139.164" y2="290.133"/>
	
		<line fill="none" stroke="#3D384F" stroke-width="3" stroke-linecap="round" stroke-linejoin="round" x1="156.399" y1="287.076" x2="157.398" y2="291.901"/>
	
		<line fill="none" stroke="#3D384F" stroke-width="3" stroke-linecap="round" stroke-linejoin="round" x1="174.604" y1="290.345" x2="175.251" y2="295.104"/>
	
		<line fill="none" stroke="#3D384F" stroke-width="3" stroke-linecap="round" stroke-linejoin="round" x1="194.92" y1="293.494" x2="195.145" y2="297.621"/>
	
		<line fill="none" stroke="#3D384F" stroke-width="3" stroke-linecap="round" stroke-linejoin="round" x1="213.955" y1="294.399" x2="213.877" y2="297.586"/>
	
		<line fill="none" stroke="#3D384F" stroke-width="3" stroke-linecap="round" stroke-linejoin="round" x1="248.627" y1="291.089" x2="248.12" y2="294.161"/>
	
		<line fill="none" stroke="#3D384F" stroke-width="3" stroke-linecap="round" stroke-linejoin="round" x1="276.528" y1="285.315" x2="275.182" y2="290.264"/>
	
		<line fill="none" stroke="#3D384F" stroke-width="3" stroke-linecap="round" stroke-linejoin="round" x1="297.519" y1="280.586" x2="295.082" y2="287.566"/>
	
		<line fill="none" stroke="#3D384F" stroke-width="3" stroke-linecap="round" stroke-linejoin="round" x1="312.572" y1="279.617" x2="309.465" y2="287.265"/>
	
		<line fill="none" stroke="#3D384F" stroke-width="3" stroke-linecap="round" stroke-linejoin="round" x1="323.126" y1="285.011" x2="319.717" y2="292.471"/>
	
		<line fill="none" stroke="#3D384F" stroke-width="3" stroke-linecap="round" stroke-linejoin="round" x1="329.305" y1="296.377" x2="325.576" y2="303.771"/>
	
		<line fill="none" stroke="#3D384F" stroke-width="3" stroke-linecap="round" stroke-linejoin="round" x1="328.829" y1="312.942" x2="324.848" y2="320.317"/>
	
		<line fill="none" stroke="#3D384F" stroke-width="3" stroke-linecap="round" stroke-linejoin="round" x1="313.675" y1="318.438" x2="310.507" y2="324.988"/>
	
		<line fill="none" stroke="#3D384F" stroke-width="3" stroke-linecap="round" stroke-linejoin="round" x1="289.096" y1="316.778" x2="287.344" y2="321.536"/>
	
		<line fill="none" stroke="#3D384F" stroke-width="3" stroke-linecap="round" stroke-linejoin="round" x1="260.974" y1="312.991" x2="260.221" y2="316.18"/>
	
		<line fill="none" stroke="#3D384F" stroke-width="3" stroke-linecap="round" stroke-linejoin="round" x1="233.914" y1="311.821" x2="233.598" y2="314.58"/>
	
		<line fill="none" stroke="#3D384F" stroke-width="3" stroke-linecap="round" stroke-linejoin="round" x1="215.031" y1="315.794" x2="214.932" y2="319.021"/>
	
		<line fill="none" stroke="#3D384F" stroke-width="3" stroke-linecap="round" stroke-linejoin="round" x1="197.444" y1="323.997" x2="197.646" y2="328.014"/>
	
		<line fill="none" stroke="#3D384F" stroke-width="3" stroke-linecap="round" stroke-linejoin="round" x1="176.251" y1="334.027" x2="176.956" y2="338.508"/>
	
		<line fill="none" stroke="#3D384F" stroke-width="3" stroke-linecap="round" stroke-linejoin="round" x1="150.891" y1="343.383" x2="152.177" y2="347.732"/>
	
		<line fill="none" stroke="#3D384F" stroke-width="3" stroke-linecap="round" stroke-linejoin="round" x1="121.586" y1="349.013" x2="123.144" y2="352.39"/>
	
		<line fill="none" stroke="#3D384F" stroke-width="3" stroke-linecap="round" stroke-linejoin="round" x1="89.7" y1="347.72" x2="90.695" y2="349.309"/>
	
		<line fill="none" stroke="#3D384F" stroke-width="3" stroke-linecap="round" stroke-linejoin="round" x1="63.842" y1="339.761" x2="64.256" y2="340.33"/>
	
		<line fill="none" stroke="#3D384F" stroke-width="3" stroke-linecap="round" stroke-linejoin="round" x1="67.332" y1="339.231" x2="67.649" y2="339.678"/>
	
		<line fill="none" stroke="#3D384F" stroke-width="3" stroke-linecap="round" stroke-linejoin="round" x1="76.023" y1="337.352" x2="76.541" y2="338.133"/>
	
		<line fill="none" stroke="#3D384F" stroke-width="3" stroke-linecap="round" stroke-linejoin="round" x1="88.151" y1="334.941" x2="88.986" y2="336.345"/>
	
		<line fill="none" stroke="#3D384F" stroke-width="3" stroke-linecap="round" stroke-linejoin="round" x1="101.852" y1="332.566" x2="103.022" y2="334.813"/>
	
		<line fill="none" stroke="#3D384F" stroke-width="3" stroke-linecap="round" stroke-linejoin="round" x1="115.372" y1="330.788" x2="116.762" y2="333.873"/>
	
		<line fill="none" stroke="#3D384F" stroke-width="3" stroke-linecap="round" stroke-linejoin="round" x1="124.938" y1="330.152" x2="126.393" y2="333.758"/>
	
		<line fill="none" stroke="#3D384F" stroke-width="3" stroke-linecap="round" stroke-linejoin="round" x1="132.228" y1="329.186" x2="133.671" y2="333.127"/>
	
		<line fill="none" stroke="#3D384F" stroke-width="3" stroke-linecap="round" stroke-linejoin="round" x1="139.486" y1="327.031" x2="140.867" y2="331.251"/>
	
		<line fill="none" stroke="#3D384F" stroke-width="3" stroke-linecap="round" stroke-linejoin="round" x1="146.023" y1="324.356" x2="147.316" y2="328.781"/>
	
		<line fill="none" stroke="#3D384F" stroke-width="3" stroke-linecap="round" stroke-linejoin="round" x1="151.214" y1="321.814" x2="152.419" y2="326.362"/>
	
		<line fill="none" stroke="#3D384F" stroke-width="3" stroke-linecap="round" stroke-linejoin="round" x1="154.494" y1="320.002" x2="155.636" y2="324.612"/>
	
		<line fill="none" stroke="#3D384F" stroke-width="3" stroke-linecap="round" stroke-linejoin="round" x1="155.375" y1="319.479" x2="156.498" y2="324.105"/>
	
		<line fill="none" stroke="#3D384F" stroke-width="3" stroke-linecap="round" stroke-linejoin="round" x1="154.62" y1="319.303" x2="155.757" y2="323.92"/>
	
		<line fill="none" stroke="#3D384F" stroke-width="3" stroke-linecap="round" stroke-linejoin="round" x1="152.353" y1="318.937" x2="153.527" y2="323.529"/>
	
		<line fill="none" stroke="#3D384F" stroke-width="3" stroke-linecap="round" stroke-linejoin="round" x1="148.567" y1="318.632" x2="149.803" y2="323.154"/>
	
		<line fill="none" stroke="#3D384F" stroke-width="3" stroke-linecap="round" stroke-linejoin="round" x1="143.254" y1="318.636" x2="144.56" y2="323.023"/>
	
		<line fill="none" stroke="#3D384F" stroke-width="3" stroke-linecap="round" stroke-linejoin="round" x1="136.381" y1="319.19" x2="137.752" y2="323.346"/>
	
		<line fill="none" stroke="#3D384F" stroke-width="3" stroke-linecap="round" stroke-linejoin="round" x1="129.718" y1="320.203" x2="131.118" y2="324.069"/>
	
		<line fill="none" stroke="#3D384F" stroke-width="3" stroke-linecap="round" stroke-linejoin="round" x1="119.633" y1="321.342" x2="121.004" y2="324.677"/>
	
		<line fill="none" stroke="#3D384F" stroke-width="3" stroke-linecap="round" stroke-linejoin="round" x1="111.221" y1="321.139" x2="112.482" y2="323.948"/>
	
		<line fill="none" stroke="#3D384F" stroke-width="3" stroke-linecap="round" stroke-linejoin="round" x1="104.646" y1="320.124" x2="105.774" y2="322.485"/>
	
		<line fill="none" stroke="#3D384F" stroke-width="3" stroke-linecap="round" stroke-linejoin="round" x1="100.008" y1="318.83" x2="101.018" y2="320.865"/>
	
		<line fill="none" stroke="#3D384F" stroke-width="3" stroke-linecap="round" stroke-linejoin="round" x1="97.36" y1="317.78" x2="98.293" y2="319.62"/>
	
		<line fill="none" stroke="#3D384F" stroke-width="3" stroke-linecap="round" stroke-linejoin="round" x1="96.702" y1="317.453" x2="97.614" y2="319.247"/>
	
		<line fill="none" stroke="#3D384F" stroke-width="3" stroke-linecap="round" stroke-linejoin="round" x1="97.916" y1="316.733" x2="98.854" y2="318.605"/>
	
		<line fill="none" stroke="#3D384F" stroke-width="3" stroke-linecap="round" stroke-linejoin="round" x1="101.277" y1="314.948" x2="102.283" y2="317.038"/>
	
		<line fill="none" stroke="#3D384F" stroke-width="3" stroke-linecap="round" stroke-linejoin="round" x1="106.359" y1="312.646" x2="107.464" y2="315.078"/>
	
		<line fill="none" stroke="#3D384F" stroke-width="3" stroke-linecap="round" stroke-linejoin="round" x1="112.759" y1="310.369" x2="113.966" y2="313.233"/>
	
		<line fill="none" stroke="#3D384F" stroke-width="3" stroke-linecap="round" stroke-linejoin="round" x1="120.111" y1="308.619" x2="121.402" y2="311.962"/>
	
		<line fill="none" stroke="#3D384F" stroke-width="3" stroke-linecap="round" stroke-linejoin="round" x1="126.477" y1="307.933" x2="127.805" y2="311.653"/>
	
		<line fill="none" stroke="#3D384F" stroke-width="3" stroke-linecap="round" stroke-linejoin="round" x1="132.557" y1="307.465" x2="133.886" y2="311.499"/>
	
		<line fill="none" stroke="#3D384F" stroke-width="3" stroke-linecap="round" stroke-linejoin="round" x1="138.812" y1="306.672" x2="140.108" y2="310.974"/>
	
		<line fill="none" stroke="#3D384F" stroke-width="3" stroke-linecap="round" stroke-linejoin="round" x1="144.61" y1="305.754" x2="145.848" y2="310.254"/>
	
		<line fill="none" stroke="#3D384F" stroke-width="3" stroke-linecap="round" stroke-linejoin="round" x1="149.335" y1="304.904" x2="150.508" y2="309.525"/>
	
		<line fill="none" stroke="#3D384F" stroke-width="3" stroke-linecap="round" stroke-linejoin="round" x1="152.381" y1="304.304" x2="153.506" y2="308.992"/>
	
		<line fill="none" stroke="#3D384F" stroke-width="3" stroke-linecap="round" stroke-linejoin="round" x1="153.211" y1="304.132" x2="154.321" y2="308.833"/>
	
		<line fill="none" stroke="#3D384F" stroke-width="3" stroke-linecap="round" stroke-linejoin="round" x1="152.185" y1="303.492" x2="153.31" y2="308.18"/>
	
		<line fill="none" stroke="#3D384F" stroke-width="3" stroke-linecap="round" stroke-linejoin="round" x1="149.333" y1="301.976" x2="150.495" y2="306.612"/>
	
		<line fill="none" stroke="#3D384F" stroke-width="3" stroke-linecap="round" stroke-linejoin="round" x1="145.007" y1="300.208" x2="146.217" y2="304.741"/>
	
		<line fill="none" stroke="#3D384F" stroke-width="3" stroke-linecap="round" stroke-linejoin="round" x1="139.526" y1="298.778" x2="140.781" y2="303.13"/>
	
		<line fill="none" stroke="#3D384F" stroke-width="3" stroke-linecap="round" stroke-linejoin="round" x1="133.168" y1="298.262" x2="134.448" y2="302.336"/>
	
		<line fill="none" stroke="#3D384F" stroke-width="3" stroke-linecap="round" stroke-linejoin="round" x1="127.592" y1="298.889" x2="128.872" y2="302.667"/>
	
		<line fill="none" stroke="#3D384F" stroke-width="3" stroke-linecap="round" stroke-linejoin="round" x1="118.043" y1="300.222" x2="119.255" y2="303.403"/>
	
		<line fill="none" stroke="#3D384F" stroke-width="3" stroke-linecap="round" stroke-linejoin="round" x1="108.631" y1="300.555" x2="109.686" y2="303.06"/>
	
		<line fill="none" stroke="#3D384F" stroke-width="3" stroke-linecap="round" stroke-linejoin="round" x1="100.188" y1="300.234" x2="101.042" y2="302.104"/>
	
		<line fill="none" stroke="#3D384F" stroke-width="3" stroke-linecap="round" stroke-linejoin="round" x1="93.489" y1="299.612" x2="94.159" y2="300.998"/>
	
		<line fill="none" stroke="#3D384F" stroke-width="3" stroke-linecap="round" stroke-linejoin="round" x1="89.261" y1="299.041" x2="89.812" y2="300.142"/>
</g>
</svg>
