<?xml version="1.0" encoding="utf-8"?>
<!-- Generator: Adobe Illustrator 16.0.4, SVG Export Plug-In . SVG Version: 6.00 Build 0)  -->
<!DOCTYPE svg PUBLIC "-//W3C//DTD SVG 1.1//EN" "http://www.w3.org/Graphics/SVG/1.1/DTD/svg11.dtd">
<svg version="1.1" xmlns="http://www.w3.org/2000/svg" xmlns:xlink="http://www.w3.org/1999/xlink" x="0px" y="0px"
	 width="113.114px" height="122.463px" viewBox="0 0 113.114 122.463" enable-background="new 0 0 113.114 122.463"
	 xml:space="preserve">
<g id="misc">
</g>
<g id="export::shelves">
	<g>
		<path d="M111.615,1.5v119.463H1.5V1.5H111.615 M113.115,0H0v122.463h113.115V0L113.115,0z"/>
	</g>
	<polygon fill="none" stroke="#000000" stroke-width="1.5" stroke-linecap="round" stroke-linejoin="round" points="37.029,116.854 
		37.029,87.307 48.135,75.824 48.135,58.663 37.907,48.593 5.609,48.593 5.609,116.854 	"/>
	<polygon fill="none" stroke="#000000" stroke-width="1.5" stroke-linecap="round" stroke-linejoin="round" points="5.609,42.983 
		40.205,42.983 51.475,54.08 57.381,54.08 62.092,49.445 62.092,45.86 75.039,32.438 75.039,5.608 5.609,5.608 	"/>
	<polygon fill="none" stroke="#000000" stroke-width="1.5" stroke-linecap="round" stroke-linejoin="round" points="107.506,64.662 
		85.479,64.662 68.23,47.815 68,47.815 80.648,34.702 80.648,5.608 107.506,5.608 	"/>
	<polygon fill="none" stroke="#000000" stroke-width="1.5" stroke-linecap="round" stroke-linejoin="round" points="107.506,84.817 
		68.464,84.817 53.743,70.202 53.743,59.688 59.678,59.688 65.996,53.473 83.193,70.271 107.506,70.271 	"/>
	<polygon fill="none" stroke="#000000" stroke-width="1.5" stroke-linecap="round" stroke-linejoin="round" points="42.638,116.854 
		42.638,89.575 53.737,78.1 66.153,90.426 107.506,90.426 107.506,116.854 	"/>
	<polygon opacity="0.2" fill="none" stroke="#000000" stroke-width="1.5" stroke-linecap="round" stroke-linejoin="round" points="
		68,47.815 80.648,34.702 80.648,5.608 107.506,5.608 107.506,64.662 85.479,64.662 68.23,47.815 	"/>
</g>
<g id="export::control_points">
	<line fill="#C300BF" x1="76.871" y1="87.389" x2="76.871" y2="87.641"/>
</g>
<g id="Capa_1">
	<g>
		<path d="M22.829,40.243c-1.412,0-2.939-0.291-4.128-0.986c-0.116,0.133-0.181,0.268-0.181,0.396c0,0.799,2.159,1.217,4.291,1.217
			c2.134,0,4.293-0.418,4.293-1.217c0-0.125-0.062-0.254-0.172-0.384C25.747,39.956,24.23,40.243,22.829,40.243z"/>
		<path d="M28.022,33.138c-1.48,0.389-3.388,0.732-5.508,0.732c-1.708,0-3.352-0.225-4.918-0.66c-0.415,0.766-0.66,1.606-0.66,2.463
			c0,3.132,3.174,4.244,5.893,4.244c2.717,0,5.892-1.112,5.892-4.244C28.721,34.789,28.461,33.921,28.022,33.138z M26.2,38.775
			L26.2,38.775c-0.005,0.001-0.009,0.004-0.013,0.005l-0.056-0.168l-0.107-0.102c0.017-0.018,1.601-1.74,0.323-4.262l-0.098-0.192
			l1.58-0.312l0.047,0.135C27.89,33.917,29.143,37.657,26.2,38.775z"/>
		<path d="M30.877,31.813l-4.323-10.078l-8.282,0.021l-3.482,10.047c2.36,1.155,4.958,1.741,7.726,1.741
			C26.775,33.544,30.159,32.136,30.877,31.813z"/>
	</g>
	<g>
		<path fill="none" d="M82.179,109.298c-0.099,0-0.18,0.161-0.18,0.359v3.597c0,0.197,0.081,0.358,0.18,0.358
			c0.1,0,0.18-0.161,0.18-0.358v-3.597C82.358,109.459,82.278,109.298,82.179,109.298z"/>
		<path fill="none" d="M83.258,109.298c-0.099,0-0.18,0.161-0.18,0.359v3.597c0,0.197,0.081,0.358,0.18,0.358s0.18-0.161,0.18-0.358
			v-3.597C83.438,109.459,83.356,109.298,83.258,109.298z"/>
		<path fill="none" d="M78.942,109.298c-0.1,0-0.18,0.161-0.18,0.359v3.597c0,0.197,0.08,0.358,0.18,0.358s0.18-0.161,0.18-0.358
			v-3.597C79.122,109.459,79.042,109.298,78.942,109.298z"/>
		<path fill="none" d="M84.337,109.298c-0.1,0-0.18,0.161-0.18,0.359v3.597c0,0.197,0.08,0.358,0.18,0.358
			c0.099,0,0.18-0.161,0.18-0.358v-3.597C84.517,109.459,84.436,109.298,84.337,109.298z"/>
		<path fill="none" d="M80.021,109.298c-0.1,0-0.18,0.161-0.18,0.359v3.597c0,0.197,0.08,0.358,0.18,0.358s0.18-0.161,0.18-0.358
			v-3.597C80.201,109.459,80.121,109.298,80.021,109.298z"/>
		<path fill="none" d="M81.101,109.298c-0.1,0-0.181,0.161-0.181,0.359v3.597c0,0.197,0.081,0.358,0.181,0.358
			c0.099,0,0.179-0.161,0.179-0.358v-3.597C81.279,109.459,81.199,109.298,81.101,109.298z"/>
		<path fill="none" d="M85.415,109.298c-0.099,0-0.18,0.161-0.18,0.359v3.597c0,0.197,0.081,0.358,0.18,0.358
			s0.181-0.161,0.181-0.358v-3.597C85.596,109.459,85.514,109.298,85.415,109.298z"/>
		<circle fill="none" cx="91.281" cy="106.848" r="1.371"/>
		<path fill="none" d="M85.955,104.623h-6.474c-0.397,0-0.719,0.321-0.719,0.719v2.158c0,0.396,0.321,0.719,0.719,0.719h6.474
			c0.397,0,0.719-0.322,0.719-0.719v-2.158C86.674,104.944,86.353,104.623,85.955,104.623z M86.299,106.571l-5.432-0.013
			l-0.008,1.212l-0.358-0.002l0.007-1.21l-1.37-0.003v-0.359l1.371,0.003l0.007-1.218l0.359,0.002l-0.007,1.217l5.432,0.011
			L86.299,106.571z"/>
		<path fill="none" d="M86.494,109.298c-0.099,0-0.18,0.161-0.18,0.359v3.597c0,0.197,0.081,0.358,0.18,0.358s0.18-0.161,0.18-0.358
			v-3.597C86.674,109.459,86.593,109.298,86.494,109.298z"/>
		<path d="M79.842,100.128c0.283,0,0.533-0.134,0.697-0.339l-0.026,0.102l10.046,2.707c0.163-0.234,0.399-0.427,0.688-0.56
			l-10.508-2.831c-0.013-0.486-0.408-0.878-0.896-0.878c-0.497,0-0.899,0.403-0.899,0.9
			C78.942,99.726,79.345,100.128,79.842,100.128z"/>
		<path d="M90.692,103.185h2.932c-0.09-0.556-0.71-0.989-1.466-0.989C91.401,102.195,90.782,102.629,90.692,103.185z"/>
		<path d="M94.463,103.545H78.088c-0.435,0-1.123,1.584-1.123,2.208v6.326c0,0.687,0.708,2.612,1.123,2.612h16.375
			c0.245,0,0.842-1.395,0.842-2.612v-6.326C95.305,105.076,94.874,103.545,94.463,103.545z M79.122,113.254
			c0,0.197-0.08,0.358-0.18,0.358s-0.18-0.161-0.18-0.358v-3.597c0-0.198,0.08-0.359,0.18-0.359s0.18,0.161,0.18,0.359V113.254z
			 M80.201,113.254c0,0.197-0.08,0.358-0.18,0.358s-0.18-0.161-0.18-0.358v-3.597c0-0.198,0.08-0.359,0.18-0.359
			s0.18,0.161,0.18,0.359V113.254z M81.279,113.254c0,0.197-0.08,0.358-0.179,0.358c-0.1,0-0.181-0.161-0.181-0.358v-3.597
			c0-0.198,0.081-0.359,0.181-0.359c0.099,0,0.179,0.161,0.179,0.359V113.254z M82.358,113.254c0,0.197-0.08,0.358-0.18,0.358
			c-0.099,0-0.18-0.161-0.18-0.358v-3.597c0-0.198,0.081-0.359,0.18-0.359c0.1,0,0.18,0.161,0.18,0.359V113.254z M83.438,113.254
			c0,0.197-0.081,0.358-0.18,0.358s-0.18-0.161-0.18-0.358v-3.597c0-0.198,0.081-0.359,0.18-0.359s0.18,0.161,0.18,0.359V113.254z
			 M84.517,113.254c0,0.197-0.081,0.358-0.18,0.358c-0.1,0-0.18-0.161-0.18-0.358v-3.597c0-0.198,0.08-0.359,0.18-0.359
			c0.099,0,0.18,0.161,0.18,0.359V113.254z M85.596,113.254c0,0.197-0.082,0.358-0.181,0.358s-0.18-0.161-0.18-0.358v-3.597
			c0-0.198,0.081-0.359,0.18-0.359s0.181,0.161,0.181,0.359V113.254z M86.674,113.254c0,0.197-0.081,0.358-0.18,0.358
			s-0.18-0.161-0.18-0.358v-3.597c0-0.198,0.081-0.359,0.18-0.359s0.18,0.161,0.18,0.359V113.254z M86.674,107.5
			c0,0.396-0.321,0.719-0.719,0.719h-6.474c-0.397,0-0.719-0.322-0.719-0.719v-2.158c0-0.397,0.321-0.719,0.719-0.719h6.474
			c0.397,0,0.719,0.321,0.719,0.719V107.5z M91.281,108.219c-0.757,0-1.371-0.614-1.371-1.37c0-0.758,0.614-1.372,1.371-1.372
			s1.37,0.614,1.37,1.372C92.651,107.604,92.038,108.219,91.281,108.219z"/>
		<polygon points="80.875,104.983 80.516,104.981 80.509,106.199 79.138,106.196 79.138,106.556 80.508,106.559 80.501,107.769 
			80.859,107.771 80.867,106.559 86.299,106.571 86.3,106.211 80.868,106.2 		"/>
	</g>
	<g>
		<path d="M103.576,61.866V50.88v-0.276V49.54v-0.105c0-0.143-0.075-1.334-1.487-2.053h-0.001l-0.31-3.236h-2.157
			c0,0-0.45,3.057-0.464,3.236c-1.624,1.079-1.694,1.91-1.694,2.053v0.105v1.063v0.374h0.396h2.122v8.631h-2.518v2.518h0.183
			c0.338,0.293,1.419,0.509,2.704,0.509c1.284,0,2.659-0.216,3.098-0.509h0.129v-0.129c0.011-0.022,0.018-0.043,0.018-0.066
			C103.594,61.909,103.587,61.888,103.576,61.866z"/>
		<path d="M100.101,43.786h1.199c0.264,0,0.479-0.215,0.479-0.479v-0.12c0-0.265-0.215-0.479-0.48-0.479h-1.197
			c-0.266,0-0.479,0.215-0.479,0.479v0.12C99.621,43.571,99.835,43.786,100.101,43.786z"/>
	</g>
	<g>
		<path d="M95.264,61.866V50.88v-0.276V49.54v-0.105c0-0.143-0.075-1.334-1.487-2.053h-0.001l-0.309-3.236h-2.158
			c0,0-0.449,3.057-0.464,3.236c-1.623,1.079-1.694,1.91-1.694,2.053v0.105v1.063v0.374h0.396h2.122v8.631H89.15v2.518h0.183
			c0.338,0.293,1.42,0.509,2.704,0.509s2.659-0.216,3.099-0.509h0.128v-0.129c0.012-0.022,0.019-0.043,0.019-0.066
			C95.282,61.909,95.275,61.888,95.264,61.866z"/>
		<path d="M91.788,43.786h1.199c0.264,0,0.479-0.215,0.479-0.479v-0.12c0-0.265-0.216-0.479-0.48-0.479h-1.198
			c-0.265,0-0.479,0.215-0.479,0.479v0.12C91.309,43.571,91.523,43.786,91.788,43.786z"/>
	</g>
</g>
<g id="Layer_1">
	<g>
		<path d="M32.318,70.38c0.619-0.244,1.003-0.732,1.003-0.732s-0.617-0.091-1.232,0.152c-0.616,0.244-1.001,0.732-1.001,0.732
			l0.033,0.003c-0.122,0.073-0.244,0.153-0.364,0.231c-0.03-0.078-0.205-0.5-0.594-0.832c-0.43-0.363-0.95-0.457-0.95-0.457
			s0.18,0.498,0.608,0.861c0.378,0.322,0.804,0.427,0.908,0.447c-0.345,0.223-0.683,0.456-1.012,0.707
			c-0.063-0.115-0.335-0.574-0.84-0.9c-0.575-0.375-1.219-0.408-1.219-0.408s0.293,0.574,0.868,0.95
			c0.46,0.3,0.961,0.378,1.143,0.399c-0.333,0.258-0.664,0.526-0.981,0.812c-0.163-0.232-0.494-0.633-0.983-0.918
			c-0.722-0.423-1.505-0.428-1.505-0.428s0.385,0.683,1.106,1.105c0.448,0.264,0.919,0.364,1.213,0.404
			c-0.39,0.361-0.765,0.747-1.127,1.148c-0.209-0.251-0.701-0.775-1.404-1.099c-0.953-0.439-1.933-0.348-1.933-0.348
			s0.565,0.805,1.519,1.243c0.666,0.307,1.336,0.354,1.686,0.354c-0.468,0.531-0.917,1.086-1.338,1.676
			c-0.268-0.305-0.785-0.82-1.51-1.155c-1.076-0.497-2.183-0.396-2.183-0.396s0.638,0.91,1.715,1.406
			c0.682,0.315,1.373,0.39,1.789,0.402c-0.481,0.695-0.921,1.436-1.333,2.201c-0.411-0.342-1.182-0.893-2.172-1.174
			c-1.493-0.424-2.903-0.066-2.903-0.066s1.013,1.045,2.505,1.469c0.921,0.264,1.808,0.228,2.354,0.161
			c-0.412,0.801-0.777,1.638-1.11,2.496c-0.441-0.376-1.386-1.079-2.621-1.421c-1.727-0.476-3.35-0.05-3.35-0.05
			s1.178,1.196,2.902,1.673c1.207,0.332,2.351,0.224,2.937,0.128c-0.995,2.673-1.566,5.585-1.698,8.541h-1.78
			c-0.868,0-1.577,0.707-1.577,1.577c0,0.326,0.103,0.634,0.282,0.888c-0.257,0.435-0.41,0.918-0.446,1.415l-1.247,17.823
			c-0.06,0.849,0.22,1.65,0.788,2.259c0.567,0.608,1.348,0.945,2.2,0.945h4.732c0.851,0,1.633-0.337,2.199-0.945
			c0.568-0.608,0.848-1.41,0.788-2.259l-1.246-17.823c-0.038-0.497-0.19-0.98-0.448-1.415c0.181-0.255,0.284-0.563,0.284-0.888
			c0-0.87-0.709-1.577-1.577-1.577H22.53c0.133-2.789,0.562-5.564,1.357-8.165c0.505,0.392,1.335,0.932,2.37,1.219
			c1.725,0.475,3.349,0.048,3.349,0.048s-1.177-1.197-2.902-1.672c-1.02-0.28-1.993-0.245-2.628-0.17
			c0.277-0.843,0.591-1.665,0.945-2.458c0.399,0.336,1.186,0.918,2.215,1.209c1.493,0.425,2.902,0.066,2.902,0.066
			s-1.012-1.047-2.503-1.471c-0.987-0.279-1.927-0.219-2.456-0.145c0.35-0.754,0.729-1.481,1.15-2.18
			c0.266,0.305,0.787,0.824,1.514,1.159c1.076,0.497,2.182,0.396,2.182,0.396s-0.638-0.91-1.715-1.408
			c-0.701-0.322-1.407-0.391-1.821-0.401c0.371-0.595,0.766-1.167,1.191-1.712c0.233,0.269,0.699,0.73,1.349,1.03
			c0.953,0.438,1.932,0.349,1.932,0.349s-0.567-0.805-1.519-1.243c-0.612-0.283-1.23-0.347-1.599-0.354
			c0.327-0.406,0.671-0.797,1.028-1.172c0.129,0.199,0.486,0.685,1.05,1.016c0.723,0.424,1.508,0.428,1.508,0.428
			s-0.386-0.684-1.108-1.105c-0.536-0.316-1.104-0.4-1.362-0.42c0.286-0.295,0.577-0.582,0.881-0.854
			c0.123,0.192,0.377,0.54,0.775,0.8c0.577,0.375,1.219,0.406,1.219,0.406s-0.291-0.572-0.867-0.949
			c-0.36-0.233-0.745-0.334-0.984-0.377c0.268-0.234,0.547-0.459,0.832-0.676c0.073,0.161,0.25,0.496,0.565,0.762
			c0.431,0.364,0.947,0.457,0.947,0.457s-0.177-0.498-0.605-0.863c-0.306-0.258-0.648-0.375-0.826-0.424
			c0.13-0.098,0.265-0.188,0.398-0.281C31.521,70.555,31.919,70.539,32.318,70.38z M24.193,90.49c0.434,0,0.787,0.355,0.787,0.789
			c0,0.364-0.256,0.661-0.595,0.749c0.429,0.423,0.717,0.988,0.761,1.61l0.262,3.74h-2.939v9.464h-1.282v-9.464h-2.94l0.262-3.74
			c0.044-0.622,0.333-1.188,0.76-1.61c-0.338-0.088-0.595-0.385-0.595-0.749c0-0.434,0.355-0.789,0.789-0.789h1.747
			c-0.002,0.193-0.024,0.385-0.024,0.58v6.31h1.282v-6.31c0.003-0.193,0.021-0.387,0.026-0.58H24.193z"/>
	</g>
</g>
</svg>
