<?xml version="1.0" encoding="utf-8"?>
<!-- Generator: Adobe Illustrator 16.0.4, SVG Export Plug-In . SVG Version: 6.00 Build 0)  -->
<!DOCTYPE svg PUBLIC "-//W3C//DTD SVG 1.1//EN" "http://www.w3.org/Graphics/SVG/1.1/DTD/svg11.dtd">
<svg version="1.1" id="Layer_1" xmlns="http://www.w3.org/2000/svg" xmlns:xlink="http://www.w3.org/1999/xlink" x="0px" y="0px"
	 width="300px" height="300px" viewBox="0 0 300 300" enable-background="new 0 0 300 300" xml:space="preserve">
<polygon fill="none" stroke="#3D384F" stroke-width="6" stroke-linecap="round" stroke-linejoin="round" stroke-miterlimit="10" points="
	7.814,69.039 88.491,139.955 86.379,122.846 106.369,124.501 101.232,104.701 119.402,104.79 38.729,33.871 "/>
<polyline fill="none" stroke="#3D384F" stroke-width="6" stroke-linecap="round" stroke-linejoin="round" stroke-miterlimit="10" points="
	119.402,104.79 142.529,156.288 88.491,139.955 "/>
<polygon fill="#3D384F" stroke="#3D384F" stroke-width="6" stroke-linecap="round" stroke-linejoin="round" stroke-miterlimit="10" points="
	141.699,155.141 132.756,135.22 120.801,148.821 "/>
<polygon fill="none" stroke="#3D384F" stroke-width="6" stroke-linecap="round" stroke-linejoin="round" stroke-miterlimit="10" points="
	71.223,194.781 126.762,243.6 125.309,231.822 139.068,232.961 135.534,219.331 148.042,219.393 92.505,170.57 "/>
<polyline fill="none" stroke="#3D384F" stroke-width="6" stroke-linecap="round" stroke-linejoin="round" stroke-miterlimit="10" points="
	148.042,219.393 163.964,254.843 126.762,243.6 "/>
<polygon fill="#3D384F" stroke="#3D384F" stroke-width="6" stroke-linecap="round" stroke-linejoin="round" stroke-miterlimit="10" points="
	163.393,254.055 157.234,240.342 149.003,249.704 "/>
<polygon fill="none" stroke="#3D384F" stroke-width="6" stroke-linecap="round" stroke-linejoin="round" stroke-miterlimit="10" points="
	113.023,74.44 183.712,136.576 181.859,121.586 199.376,123.034 194.877,105.686 210.797,105.764 140.109,43.626 "/>
<polyline fill="none" stroke="#3D384F" stroke-width="6" stroke-linecap="round" stroke-linejoin="round" stroke-miterlimit="10" points="
	210.797,105.764 231.061,150.886 183.712,136.576 "/>
<polygon fill="#3D384F" stroke="#3D384F" stroke-width="6" stroke-linecap="round" stroke-linejoin="round" stroke-miterlimit="10" points="
	230.332,149.879 222.497,132.427 212.02,144.344 "/>
</svg>
