<?xml version="1.0" encoding="utf-8"?>
<!-- Generator: Adobe Illustrator 16.0.4, SVG Export Plug-In . SVG Version: 6.00 Build 0)  -->
<!DOCTYPE svg PUBLIC "-//W3C//DTD SVG 1.1//EN" "http://www.w3.org/Graphics/SVG/1.1/DTD/svg11.dtd">
<svg version="1.1" id="cut" xmlns="http://www.w3.org/2000/svg" xmlns:xlink="http://www.w3.org/1999/xlink" x="0px" y="0px"
	 viewBox="0 0 400 400" enable-background="new 0 0 400 400" xml:space="preserve">
<g>
	<path fill="#3D384F" d="M34.41,115.572c2.844,0.762,5.687,1.522,8.531,2.284c6.89,1.844,10.981,8.923,9.136,15.812
		c-4.452,16.63-8.904,33.262-13.356,49.893c-1.844,6.889-8.924,10.977-15.812,9.133c-2.845-0.762-5.688-1.523-8.531-2.285
		C15.769,163.5,22.173,139.578,34.41,115.572z"/>
	<path fill="#3D384F" d="M48.319,92.562c52.037-73.48,149.245-99.118,230.751-60.86c81.505,38.26,123.887,129.421,100.604,216.397
		C356.39,335.075,274.133,392.87,184.415,385.293C94.695,377.715,23.297,306.94,14.93,217.292c8.75,2.343,17.499,4.685,26.246,7.025
		c6.891,1.846,13.968-2.245,15.812-9.135c8.909,0.01,17.816,0.019,26.727,0.027c4.328-5.32,8.209-9.781,11.64-13.385
		c6.188-2.198,8.435,2.27,6.735,13.401c4.329-5.318,8.21-9.779,11.641-13.384c6.188-2.198,8.432,2.27,6.734,13.402
		c4.329-5.319,8.208-9.781,11.641-13.386c6.188-2.196,8.432,2.271,6.731,13.402c4.332-5.318,8.211-9.78,11.643-13.383
		c6.188-2.198,8.435,2.269,6.733,13.401c4.329-5.319,8.21-9.78,11.64-13.385c6.191-2.198,8.436,2.27,6.735,13.402
		c4.329-5.319,8.21-9.779,11.641-13.384c6.189-2.199,8.432,2.269,6.732,13.4c4.332-5.317,8.211-9.779,11.643-13.382
		c6.188-2.199,8.434,2.269,6.733,13.399c4.329-5.317,8.21-9.779,11.64-13.382c6.189-2.199,8.435,2.27,6.736,13.401
		c5.601,0.005,11.202,0.011,16.807,0.017c5.849,0.004,10.97-3.924,12.483-9.574c2.483-9.279,4.968-18.559,7.452-27.836
		c1.843-6.89-2.244-13.969-9.132-15.812c-58.208-15.583-116.417-31.165-174.624-46.746c1.844-6.888-2.243-13.967-9.134-15.812
		C65.818,97.247,57.069,94.904,48.319,92.562z"/>
	
		<line fill="none" stroke="#3D384F" stroke-width="5.4093" stroke-linecap="round" stroke-linejoin="round" stroke-miterlimit="10" x1="87.756" y1="110.455" x2="58.031" y2="221.493"/>
</g>
</svg>
