<?xml version="1.0" encoding="utf-8"?>
<!-- Generator: Adobe Illustrator 16.0.4, SVG Export Plug-In . SVG Version: 6.00 Build 0)  -->
<!DOCTYPE svg PUBLIC "-//W3C//DTD SVG 1.1//EN" "http://www.w3.org/Graphics/SVG/1.1/DTD/svg11.dtd">
<svg version="1.1" xmlns="http://www.w3.org/2000/svg" xmlns:xlink="http://www.w3.org/1999/xlink" x="0px" y="0px"
	 width="113.114px" height="122.463px" viewBox="0 0 113.114 122.463" enable-background="new 0 0 113.114 122.463"
	 xml:space="preserve">
<g id="misc">
</g>
<g id="export::shelves">
	<g>
		<path d="M111.615,1.5v119.463H1.5V1.5H111.615 M113.115,0H0v122.463h113.115V0L113.115,0z"/>
	</g>
	<polygon fill="none" stroke="#000000" stroke-width="1.5" stroke-linecap="round" stroke-linejoin="round" points="37.029,116.854 
		37.029,87.307 48.135,75.824 48.135,58.663 37.907,48.593 5.609,48.593 5.609,116.854 	"/>
	<polygon fill="none" stroke="#000000" stroke-width="1.5" stroke-linecap="round" stroke-linejoin="round" points="5.609,42.983 
		40.205,42.983 51.475,54.08 57.381,54.08 62.092,49.445 62.092,45.86 75.039,32.438 75.039,5.609 5.609,5.609 	"/>
	<polygon fill="none" stroke="#000000" stroke-width="1.5" stroke-linecap="round" stroke-linejoin="round" points="107.506,64.662 
		85.479,64.662 68.23,47.815 68,47.815 80.648,34.703 80.648,5.609 107.506,5.609 	"/>
	<polygon fill="none" stroke="#000000" stroke-width="1.5" stroke-linecap="round" stroke-linejoin="round" points="107.506,84.817 
		68.464,84.817 53.743,70.202 53.743,59.688 59.678,59.688 65.996,53.473 83.193,70.271 107.506,70.271 	"/>
	<polygon fill="none" stroke="#000000" stroke-width="1.5" stroke-linecap="round" stroke-linejoin="round" points="42.638,116.854 
		42.638,89.575 53.737,78.1 66.153,90.426 107.506,90.426 107.506,116.854 	"/>
	<polygon opacity="0.2" fill="none" stroke="#000000" stroke-width="1.5" stroke-linecap="round" stroke-linejoin="round" points="
		107.506,70.271 107.506,84.817 68.465,84.817 53.092,69.554 59.25,63.206 59.25,59.688 59.678,59.688 65.996,53.473 83.194,70.271 
			"/>
	<polygon opacity="0.2" fill="none" stroke="#000000" stroke-width="1.5" stroke-linecap="round" stroke-linejoin="round" points="
		5.609,79.938 35.204,79.938 53.642,60.932 53.642,58.057 35.155,39.796 5.609,39.796 	"/>
	<polygon opacity="0.2" fill="none" stroke="#000000" stroke-width="1.5" stroke-linecap="round" stroke-linejoin="round" points="
		5.609,34.187 5.609,5.609 75.039,5.609 75.039,32.438 62.092,45.86 62.092,49.445 57.489,53.974 37.459,34.187 	"/>
	<polygon opacity="0.2" fill="none" stroke="#000000" stroke-width="1.5" stroke-linecap="round" stroke-linejoin="round" points="
		68,47.815 80.648,34.703 80.648,5.609 107.506,5.609 107.506,64.662 85.479,64.662 68.23,47.815 	"/>
	<polygon opacity="0.2" fill="none" stroke="#000000" stroke-width="1.5" stroke-linecap="round" stroke-linejoin="round" points="
		5.609,85.547 37.576,85.547 48.07,74.73 50.345,74.73 66.153,90.426 107.506,90.426 107.506,116.854 5.609,116.854 	"/>
</g>
<g id="export::control_points">
	<line fill="#C300BF" x1="76.871" y1="87.389" x2="76.871" y2="87.641"/>
	<circle fill="#E30600" cx="39.208" cy="77.151" r="2.805"/>
	<circle fill="#C300BF" cx="51.557" cy="88.258" r="2.805"/>
	<circle fill="#C300BF" cx="67.262" cy="71.29" r="2.805"/>
	<circle fill="#C300BF" cx="84.135" cy="46.76" r="2.805"/>
	<circle fill="#C300BF" cx="58.596" cy="33.812" r="2.805"/>
	<circle opacity="0.2" fill="#C300BF" cx="36.543" cy="62.213" r="2.805"/>
</g>
<g id="Capa_1">
</g>
<g id="Layer_1">
</g>
</svg>
