<?xml version="1.0" encoding="utf-8"?>
<!-- Generator: Adobe Illustrator 16.0.4, SVG Export Plug-In . SVG Version: 6.00 Build 0)  -->
<!DOCTYPE svg PUBLIC "-//W3C//DTD SVG 1.1//EN" "http://www.w3.org/Graphics/SVG/1.1/DTD/svg11.dtd">
<svg version="1.1" xmlns="http://www.w3.org/2000/svg" xmlns:xlink="http://www.w3.org/1999/xlink" x="0px" y="0px"
	 width="113.114px" height="122.463px" viewBox="0 0 113.114 122.463" enable-background="new 0 0 113.114 122.463"
	 xml:space="preserve">
<g id="misc">
</g>
<g id="export::shelves">
	<polygon fill="none" stroke="#000000" stroke-width="1.5" stroke-linecap="round" stroke-linejoin="round" points="107.505,70.271 
		107.505,84.817 68.464,84.817 53.09,69.554 59.25,63.206 59.25,59.688 59.677,59.688 65.995,53.473 83.193,70.271 	"/>
	<polygon fill="none" stroke="#000000" stroke-width="1.5" stroke-linecap="round" stroke-linejoin="round" points="5.609,79.938 
		35.203,79.938 53.641,60.932 53.641,58.057 35.154,39.796 5.609,39.796 	"/>
	<g>
		<path d="M111.614,1.5v119.463H1.5V1.5H111.614 M113.114,0H0v122.463h113.114V0L113.114,0z"/>
	</g>
	<polygon fill="none" stroke="#000000" stroke-width="1.5" stroke-linecap="round" stroke-linejoin="round" points="5.609,34.187 
		5.609,5.609 75.039,5.609 75.039,32.438 62.091,45.86 62.091,49.445 57.489,53.974 37.458,34.187 	"/>
	<polygon fill="none" stroke="#000000" stroke-width="1.5" stroke-linecap="round" stroke-linejoin="round" points="67.999,47.815 
		80.647,34.703 80.647,5.609 107.505,5.609 107.505,64.662 85.478,64.662 68.23,47.815 	"/>
	<polygon fill="none" stroke="#000000" stroke-width="1.5" stroke-linecap="round" stroke-linejoin="round" points="5.609,85.547 
		37.576,85.547 48.069,74.73 50.344,74.73 66.152,90.426 107.505,90.426 107.505,116.854 5.609,116.854 	"/>
</g>
<g id="export::control_points">
	<circle fill="#C300BF" cx="51.556" cy="88.258" r="2.805"/>
	<circle fill="#C300BF" cx="67.261" cy="71.29" r="2.805"/>
	<circle fill="#C300BF" cx="84.135" cy="46.76" r="2.805"/>
	<circle fill="#C300BF" cx="58.595" cy="33.812" r="2.805"/>
	<circle fill="#C300BF" cx="36.542" cy="62.213" r="2.805"/>
</g>
<g id="Capa_1">
</g>
<g id="Layer_1">
</g>
</svg>
