<?xml version="1.0" encoding="utf-8"?>
<!-- Generator: Adobe Illustrator 16.0.4, SVG Export Plug-In . SVG Version: 6.00 Build 0)  -->
<!DOCTYPE svg PUBLIC "-//W3C//DTD SVG 1.1//EN" "http://www.w3.org/Graphics/SVG/1.1/DTD/svg11.dtd">
<svg version="1.1" id="Layer_1" xmlns="http://www.w3.org/2000/svg" xmlns:xlink="http://www.w3.org/1999/xlink" x="0px" y="0px"
	 width="1000px" height="1000px" viewBox="0 0 1000 1000" enable-background="new 0 0 1000 1000" xml:space="preserve">
<path fill="none" stroke="#000000" stroke-width="15" stroke-miterlimit="10" d="M75.303,533.052
	c6.047-65.575,80.289-100.945,124.724-54.667c49.041,51.07,127.95-12.528,71.852-141.562
	c-53.526-123.12,98.943-150.686,76.232-11.144C330.313,435.04,450.169,454.823,531.399,448.803
	c119.931-8.888,240.646-99.284,282.131-141.198c74.615-75.384,147.605,80.856,42.819,114.361
	c-102.57,32.796-177.442,45.126-174.202,107.489c3.158,60.764,63.259,100.824,165.825,102.922
	c139.445,2.85,65.561,197.484-31.098,111.666c-94.177-83.614-222.416-138.441-306.662-140.58
	C372.517,599.966,323.882,636.691,354.5,746.05c31.259,111.651-124.696,102.712-87.589,1.838
	c47.478-129.076,8.109-209.991-58.472-152.687C155.535,640.734,68.186,610.213,75.303,533.052z"/>
</svg>
